HIERARCHY
ROOT hip
{
	OFFSET 0.000000 0.000000 0.000000
	CHANNELS 6 Xposition Yposition Zposition Xrotation Zrotation Yrotation 
	JOINT abdomen
	{
		OFFSET 0.000000 3.422050 0.000000
		CHANNELS 3 Xrotation Zrotation Yrotation 
		JOINT chest
		{
			OFFSET 0.000000 8.486693 -0.684411
			CHANNELS 3 Xrotation Zrotation Yrotation 
			JOINT neck
			{
				OFFSET 0.000000 10.266162 -0.273764
				CHANNELS 3 Xrotation Zrotation Yrotation 
				JOINT head
				{
					OFFSET 0.000000 3.148285 0.000000
					CHANNELS 3 Xrotation Zrotation Yrotation 
					End Site
					{
						OFFSET 0.000000 3.148289 0.000000
					}
				}
			}
			JOINT lCollar
			{
				OFFSET 3.422053 6.707223 -0.821293
				CHANNELS 3 Yrotation Zrotation Xrotation 
				JOINT lShldr
				{
					OFFSET 3.285171 0.000000 0.000000
					CHANNELS 3 Zrotation Yrotation Xrotation 
					JOINT lForeArm
					{
						OFFSET 10.129278 0.000000 0.000000
						CHANNELS 3 Yrotation Zrotation Xrotation 
						JOINT lHand
						{
							OFFSET 8.486692 0.000000 0.000000
							CHANNELS 3 Zrotation Yrotation Xrotation 
							End Site
							{
								OFFSET 4.106464 0.000000 0.000000
							}
						}
					}
				}
			}
			JOINT rCollar
			{
				OFFSET -3.558935 6.707223 -0.821293
				CHANNELS 3 Yrotation Zrotation Xrotation 
				JOINT rShldr
				{
					OFFSET -3.148289 0.000000 0.000000
					CHANNELS 3 Zrotation Yrotation Xrotation 
					JOINT rForeArm
					{
						OFFSET -10.266159 0.000000 0.000000
						CHANNELS 3 Yrotation Zrotation Xrotation 
						JOINT rHand
						{
							OFFSET -8.349810 0.000000 0.000000
							CHANNELS 3 Zrotation Yrotation Xrotation 
							End Site
							{
								OFFSET -4.106464 0.000000 0.000000
							}
						}
					}
				}
			}
		}
	}
	JOINT lThigh
	{
		OFFSET 5.338403 -1.642589 1.368821
		CHANNELS 3 Xrotation Zrotation Yrotation 
		JOINT lShin
		{
			OFFSET -2.053232 -20.121670 0.000000
			CHANNELS 3 Xrotation Zrotation Yrotation 
			JOINT lFoot
			{
				OFFSET 0.000000 -19.300380 -1.231939
				CHANNELS 3 Xrotation Yrotation Zrotation 
				End Site
				{
					OFFSET 0.000000 -2.463878 4.653993
				}
			}
		}
	}
	JOINT rThigh
	{
		OFFSET -5.338403 -1.642589 1.368821
		CHANNELS 3 Xrotation Zrotation Yrotation 
		JOINT rShin
		{
			OFFSET 2.053232 -20.121670 0.000000
			CHANNELS 3 Xrotation Zrotation Yrotation 
			JOINT rFoot
			{
				OFFSET 0.000000 -19.300380 -1.231939
				CHANNELS 3 Xrotation Yrotation Zrotation 
				End Site
				{
					OFFSET 0.000000 -2.463878 4.653993
				}
			}
		}
	}
}
MOTION
Frames: 20
Frame Time: 0.022176
-0.309380 40.185352 1.378262 -0.974890 0.000000 0.000000 10.867048 -0.928895 -0.344046 -0.618896 -2.188142 -1.083633 9.347850 7.015645 -0.045407 11.108197 0.000000 0.000000 -5.271795 4.358005 3.506347 -52.602676 -14.816518 -1.320061 -74.711311 -32.531345 -8.627514 -8.253726 6.959392 -0.828081 5.003883 -4.657284 3.228159 52.306736 14.940424 -1.441676 73.910255 32.283695 -8.247668 9.469572 -6.325741 -0.651555 -21.380198 24.668495 19.460478 115.374870 25.722158 0.134492 27.879776 -21.399971 -7.268918 -23.986313 -27.452717 -18.266651 115.170364 -25.734001 -0.058835 26.520899 22.617907 8.979172 
-0.309380 40.185352 1.296711 -0.448445 0.000000 0.000000 11.217489 -0.928900 -0.343994 -1.888758 -2.188192 -1.083580 9.394290 7.050242 -0.042820 11.163065 0.000000 0.000000 -5.179402 4.263223 3.876440 -52.602676 -14.816518 -1.320061 -74.966515 -32.581890 -8.758916 -8.255892 7.082910 -0.709168 4.899824 -4.569510 3.592863 52.306736 14.940424 -1.441676 74.150894 32.331852 -8.371032 9.494767 -6.433339 -0.534120 -22.244284 24.474699 19.234327 115.619423 25.695538 0.242731 27.877657 -21.397346 -7.479332 -24.854292 -27.235943 -18.015324 115.404518 -25.708387 -0.162934 26.515398 22.606289 9.211020 
-0.309380 40.185352 1.215160 0.077954 0.000000 0.000000 11.567918 -0.928907 -0.343941 -3.157992 -2.188241 -1.083526 9.440733 7.084836 -0.040204 11.217930 0.000000 0.000000 -5.086414 4.169043 4.246621 -52.602676 -14.816518 -1.320061 -75.222038 -32.631950 -8.890662 -8.257800 7.206430 -0.590229 4.795224 -4.482401 3.957663 52.306736 14.940424 -1.441676 74.391769 32.379570 -8.494697 9.519746 -6.540986 -0.416708 -23.106020 24.277876 19.011810 115.863831 25.668497 0.350819 27.875546 -21.394711 -7.689737 -25.719326 -27.015865 -17.768253 115.638573 -25.682388 -0.266893 26.509951 22.594656 9.442842 
-0.309380 40.185352 1.133609 0.604288 0.000000 0.000000 11.918326 -0.928913 -0.343889 -4.426294 -2.188288 -1.083471 9.487181 7.119427 -0.037559 11.272793 0.000000 0.000000 -4.992834 4.075469 4.616884 -52.602676 -14.816518 -1.320061 -75.477798 -32.681515 -9.022739 -8.259452 7.329953 -0.471262 4.690091 -4.395965 4.322555 52.306736 14.940424 -1.441676 74.632896 32.426842 -8.618660 9.544504 -6.648680 -0.299319 -23.965315 24.078096 18.792974 116.108124 25.641035 0.458753 27.873444 -21.392067 -7.900136 -26.581329 -26.792562 -17.525486 115.872498 -25.656006 -0.370708 26.504557 22.583000 9.674638 
-0.309380 40.185352 1.052058 1.130533 0.000000 0.000000 12.268711 -0.928921 -0.343836 -5.693352 -2.188334 -1.083414 9.533630 7.154013 -0.034886 11.327653 0.000000 0.000000 -4.898671 3.982511 4.987222 -52.602676 -14.816518 -1.320061 -75.733849 -32.730576 -9.155149 -8.260843 7.453475 -0.352269 4.584427 -4.310205 4.687525 52.306736 14.940424 -1.441676 74.874252 32.473679 -8.742917 9.569049 -6.756424 -0.181953 -24.822069 23.875425 18.577869 116.352325 25.613171 0.566528 27.871359 -21.389425 -8.110524 -27.440233 -26.566135 -17.287085 116.106316 -25.629244 -0.474374 26.499208 22.571321 9.906403 
-0.309380 40.185352 0.970506 1.656665 0.000000 0.000000 12.619061 -0.928928 -0.343784 -6.958857 -2.188379 -1.083357 9.580083 7.188595 -0.032185 11.382509 0.000000 0.000000 -4.803929 3.890173 5.357625 -52.602676 -14.816518 -1.320061 -75.990135 -32.779129 -9.287883 -8.261976 7.576996 -0.233247 4.478245 -4.225131 5.052571 52.306736 14.940424 -1.441676 75.115860 32.520073 -8.867470 9.593376 -6.864217 -0.064610 -25.676208 23.669952 18.366537 116.596375 25.584885 0.674139 27.869284 -21.386772 -8.320902 -28.295933 -26.336651 -17.053076 116.340034 -25.602108 -0.577894 26.493916 22.559629 10.138143 
-0.309380 40.185352 0.888955 2.182667 0.000000 0.000000 12.969372 -0.928935 -0.343732 -8.222508 -2.188422 -1.083299 9.626538 7.223173 -0.029456 11.437364 0.000000 0.000000 -4.708615 3.798460 5.728088 -52.602676 -14.816518 -1.320061 -76.246712 -32.827190 -9.420940 -8.262852 7.700519 -0.114196 4.371547 -4.140743 5.417682 52.306736 14.940424 -1.441676 75.357697 32.566017 -8.992311 9.617485 -6.972055 0.052712 -26.527658 23.461754 18.159033 116.840302 25.556204 0.781585 27.867210 -21.384104 -8.531266 -29.148376 -26.104212 -16.823515 116.573624 -25.574581 -0.681262 26.488668 22.547909 10.369842 
-0.309380 40.185352 0.807404 2.708511 0.000000 0.000000 13.319637 -0.928943 -0.343679 -9.484001 -2.188465 -1.083241 9.672996 7.257748 -0.026698 11.492219 0.000000 0.000000 -4.612735 3.707382 6.098601 -52.602676 -14.816518 -1.320061 -76.503540 -32.874741 -9.554320 -8.263470 7.824040 0.004884 4.264341 -4.057049 5.782849 52.306736 14.940424 -1.441676 75.599762 32.611519 -9.117437 9.641376 -7.079938 0.170011 -27.376318 23.250900 17.955383 117.084099 25.527094 0.888863 27.865160 -21.381441 -8.741620 -29.997484 -25.868910 -16.598436 116.807098 -25.546679 -0.784476 26.483480 22.536177 10.601516 
-0.309380 40.185352 0.725852 3.234180 0.000000 0.000000 13.669851 -0.928952 -0.343627 -10.743038 -2.188505 -1.083181 9.719459 7.292320 -0.023912 11.547069 0.000000 0.000000 -4.516295 3.616940 6.469157 -52.602676 -14.816518 -1.320061 -76.760612 -32.921787 -9.688009 -8.263826 7.947555 0.123994 4.156636 -3.974056 6.148068 52.306736 14.940424 -1.441676 75.842041 32.656559 -9.242846 9.665049 -7.187868 0.287289 -28.222143 23.037489 17.755642 117.327759 25.497578 0.995972 27.863110 -21.378763 -8.951954 -30.843187 -25.630831 -16.377874 117.040459 -25.518404 -0.887534 26.478344 22.524422 10.833149 
-0.309380 40.185352 0.644301 3.759648 0.000000 0.000000 14.020000 -0.928960 -0.343575 -11.999316 -2.188545 -1.083120 9.765924 7.326888 -0.021098 11.601916 0.000000 0.000000 -4.419303 3.527143 6.839748 -52.602676 -14.816518 -1.320061 -77.017944 -32.968338 -9.822019 -8.263923 8.071064 0.243135 4.048436 -3.891766 6.513324 52.306736 14.940424 -1.441676 76.084579 32.701172 -9.368547 9.688503 -7.295840 0.404546 -29.065023 22.821585 17.559828 117.571297 25.467661 1.102908 27.861082 -21.376085 -9.162276 -31.685423 -25.390070 -16.161858 117.273666 -25.489744 -0.990432 26.473259 22.512655 11.064747 
-0.309380 40.185352 0.562750 4.284894 0.000000 0.000000 14.370090 -0.928969 -0.343523 -13.252547 -2.188582 -1.083059 9.812390 7.361451 -0.018255 11.656758 0.000000 0.000000 -4.321764 3.437995 7.210364 -52.602676 -14.816518 -1.320061 -77.275520 -33.014366 -9.956333 -8.263762 8.194571 0.362306 3.939749 -3.810186 6.878613 52.306736 14.940424 -1.441676 76.327301 32.745316 -9.494514 9.711741 -7.403855 0.521782 -29.904907 22.603275 17.367979 117.814674 25.437328 1.209664 27.859045 -21.373388 -9.372576 -32.524124 -25.146717 -15.950417 117.506783 -25.460718 -1.093170 26.468227 22.500866 11.296308 
-0.309380 40.185352 0.481199 4.809899 0.000000 0.000000 14.720106 -0.928978 -0.343471 -14.502450 -2.188618 -1.082997 9.858860 7.396009 -0.015384 11.711601 0.000000 0.000000 -4.223683 3.349504 7.581000 -52.602676 -14.816518 -1.320061 -77.533318 -33.059879 -10.090948 -8.263340 8.318070 0.481510 3.830582 -3.729321 7.243929 52.306736 14.940424 -1.441676 76.570267 32.789013 -9.620766 9.734762 -7.511916 0.638997 -30.741735 22.382658 17.180128 118.057907 25.406591 1.316244 27.857037 -21.370693 -9.582859 -33.359249 -24.900871 -15.743569 117.739731 -25.431313 -1.195741 26.463242 22.489058 11.527819 
-0.309380 40.185352 0.399648 5.334637 0.000000 0.000000 15.070045 -0.928988 -0.343419 -15.748736 -2.188654 -1.082935 9.905334 7.430564 -0.012484 11.766443 0.000000 0.000000 -4.125071 3.261672 7.951645 -52.602676 -14.816518 -1.320061 -77.791389 -33.104897 -10.225872 -8.262660 8.441561 0.600746 3.720943 -3.649174 7.609260 52.306736 14.940424 -1.441676 76.813438 32.832260 -9.747279 9.757559 -7.620010 0.756193 -31.575436 22.159803 16.996298 118.301010 25.375452 1.422640 27.855032 -21.367989 -9.793119 -34.190720 -24.652626 -15.541343 117.972542 -25.401529 -1.298145 26.458315 22.477232 11.759294 
-0.309380 40.185352 0.318097 5.859090 0.000000 0.000000 15.419900 -0.928998 -0.343367 -16.991125 -2.188687 -1.082872 9.951811 7.465115 -0.009557 11.821281 0.000000 0.000000 -4.025928 3.174506 8.322292 -52.602676 -14.816518 -1.320061 -78.049667 -33.149387 -10.361085 -8.261717 8.565042 0.720014 3.610836 -3.569750 7.974594 52.306736 14.940424 -1.441676 77.056808 32.875038 -9.874063 9.780143 -7.728153 0.873368 -32.405937 21.934790 16.816500 118.543930 25.343904 1.528851 27.853043 -21.365282 -10.003360 -35.018505 -24.402073 -15.343745 118.205246 -25.371384 -1.400381 26.453438 22.465393 11.990721 
-0.309380 40.185352 0.236546 6.383234 0.000000 0.000000 15.769664 -0.929008 -0.343315 -18.229351 -2.188719 -1.082809 9.998290 7.499660 -0.006601 11.876114 0.000000 0.000000 -3.926267 3.088012 8.692932 -52.602676 -14.816518 -1.320061 -78.308151 -33.193356 -10.496593 -8.260518 8.688515 0.839317 3.500273 -3.491057 8.339929 52.306736 14.940424 -1.441676 77.300385 32.917366 -10.001109 9.802505 -7.836330 0.990524 -33.233192 21.707722 16.640770 118.786728 25.311958 1.634874 27.851059 -21.362568 -10.213573 -35.842537 -24.149313 -15.150799 118.437790 -25.340860 -1.502446 26.448620 22.453541 12.222105 
-0.309380 40.185352 0.154994 6.907046 0.000000 0.000000 16.119322 -0.929018 -0.343264 -19.463144 -2.188750 -1.082745 10.044772 7.534203 -0.003616 11.930945 0.000000 0.000000 -3.826093 3.002196 9.063561 -52.602676 -14.816518 -1.320061 -78.566925 -33.236835 -10.632394 -8.259055 8.811976 0.958653 3.389256 -3.413095 8.705252 52.306736 14.940424 -1.441676 77.544167 32.959240 -10.128420 9.824652 -7.944549 1.107661 -34.057144 21.478670 16.469112 119.029350 25.279608 1.740705 27.849087 -21.359844 -10.423763 -36.662788 -23.894436 -14.962510 118.670197 -25.309965 -1.604335 26.443850 22.441664 12.453436 
-0.309380 40.185352 0.073443 7.430507 0.000000 0.000000 16.468880 -0.929029 -0.343212 -20.692242 -2.188779 -1.082680 9.056126 7.492134 -0.016556 10.624188 0.000000 0.000000 -3.725411 2.917061 9.434167 -52.602676 -14.816518 -1.320061 -78.825851 -33.279762 -10.768469 -8.257334 8.935426 1.078025 3.277797 -3.335873 9.070560 52.306736 14.940424 -1.441676 77.788162 33.000648 -10.255987 9.846575 -8.052802 1.224780 -34.877731 21.247730 16.301550 119.271812 25.246855 1.846344 27.847130 -21.357117 -10.633931 -37.479198 -23.637535 -14.778876 118.902451 -25.278700 -1.706048 26.439129 22.429771 12.684717 
-0.309380 40.185352 -0.008108 7.953595 0.000000 0.000000 16.818331 -0.929040 -0.343160 -21.916388 -2.188806 -1.082616 8.065101 7.449746 -0.028790 9.311573 0.000000 0.000000 -3.624229 2.832613 9.804739 -52.602676 -14.816518 -1.320061 -79.085037 -33.322193 -10.904835 -8.255352 9.058863 1.197431 3.165901 -3.259392 9.435839 52.306736 14.940424 -1.441676 78.032356 33.041603 -10.383813 9.868285 -8.161096 1.341880 -35.694904 21.014980 16.138083 119.514122 25.213699 1.951788 27.845181 -21.354383 -10.844065 -38.291737 -23.378712 -14.599912 119.134567 -25.247068 -1.807582 26.434467 22.417868 12.915947 
-0.309380 40.185352 -0.089659 8.476288 0.000000 0.000000 17.167662 -0.929051 -0.343109 -23.135345 -2.188833 -1.082551 7.071837 7.407054 -0.040307 7.993401 0.000000 0.000000 -3.522554 2.748856 10.175272 -52.602676 -14.816518 -1.320061 -79.344406 -33.364094 -11.041471 -8.253107 9.182284 1.316874 3.053575 -3.183657 9.801082 52.306736 14.940424 -1.441676 78.276733 33.082096 -10.511885 9.889769 -8.269422 1.458961 -36.508617 20.780512 15.978725 119.756264 25.180159 2.057032 27.843250 -21.351645 -11.054174 -39.100368 -23.118055 -14.425609 119.366531 -25.215073 -1.908935 26.429859 22.405947 13.147121 
-0.309380 40.185352 -0.171211 8.998567 0.000000 0.000000 17.516869 -0.929063 -0.343058 -24.348854 -2.188857 -1.082486 6.076471 7.364074 -0.051099 6.669989 0.000000 0.000000 -3.420393 2.665796 10.545757 -52.602676 -14.816518 -1.320061 -79.603996 -33.405468 -11.178378 -8.250601 9.305690 1.436353 2.940828 -3.108673 10.166281 52.306736 14.940424 -1.441676 78.521294 33.122120 -10.640203 9.911036 -8.377785 1.576025 -37.318817 20.544407 15.823481 119.998215 25.146204 2.162074 27.841326 -21.348898 -11.264250 -39.905045 -22.855671 -14.255972 119.598320 -25.182705 -2.010103 26.425293 22.394005 13.378236 
